<?xml version="1.0"?>
<svg xmlns="http://www.w3.org/2000/svg" xmlns:xlink="http://www.w3.org/1999/xlink" xmlns:svgjs="http://svgjs.com/svgjs" version="1.1" width="512" height="512" x="0" y="0" viewBox="0 0 464 464" style="enable-background:new 0 0 512 512" xml:space="preserve" class=""><g> <path xmlns="http://www.w3.org/2000/svg" d="m120 160h32v256c0 8.835938-7.164062 16-16 16s-16-7.164062-16-16zm0 0" fill="#494342" data-original="#494342" style="" class=""/><path xmlns="http://www.w3.org/2000/svg" d="m232 96c0 53.019531-42.980469 96-96 96s-96-42.980469-96-96 42.980469-96 96-96 96 42.980469 96 96zm0 0" fill="#ad2943" data-original="#ad2943" style="" class=""/><path xmlns="http://www.w3.org/2000/svg" d="m200 96c0 35.347656-28.652344 64-64 64s-64-28.652344-64-64 28.652344-64 64-64 64 28.652344 64 64zm0 0" fill="#ee3446" data-original="#ee3446" style="" class=""/></g></svg>
